# xmcd CD database file
#
# Track frame offsets:
#	150
#	30375
#	64973
#	88926
#	121991
#	144188
#
# Disc length: 2377 seconds
#
# Revision: 0
# Processed by: cddbd v1.5.2PL0 Copyright (c) Steve Scherf et al.
# Submitted via: CDex 1.50
#
DISCID=4b094706
DTITLE=McCoy Tyner - Trident (vinyl)
DYEAR=1975
DGENRE=Jazz
TTITLE0=Celestial Chant
TTITLE1=Once I Loved
TTITLE2=Elvin (Sir) Jones
TTITLE3=Land of the Lonely
TTITLE4=Impressions
TTITLE5=Ruby, My Dear
EXTD=YEAR: 1975
EXTT0=
EXTT1=
EXTT2=
EXTT3=
EXTT4=
EXTT5=
PLAYORDER=
